<?xml version="1.0" encoding="UTF-8" standalone="no"?>
<!-- Created with Inkscape (http://www.inkscape.org/) -->

<svg
   width="1280"
   height="720"
   viewBox="0 0 338.66666 190.5"
   version="1.1"
   id="svg1"
   inkscape:version="1.3.2 (091e20e, 2023-11-25, custom)"
   sodipodi:docname="TauideasLogo.svg"
   xmlns:inkscape="http://www.inkscape.org/namespaces/inkscape"
   xmlns:sodipodi="http://sodipodi.sourceforge.net/DTD/sodipodi-0.dtd"
   xmlns="http://www.w3.org/2000/svg"
   xmlns:svg="http://www.w3.org/2000/svg">
  <sodipodi:namedview
     id="namedview1"
     pagecolor="#ffffff"
     bordercolor="#666666"
     borderopacity="1.0"
     inkscape:showpageshadow="2"
     inkscape:pageopacity="0.0"
     inkscape:pagecheckerboard="0"
     inkscape:deskcolor="#d1d1d1"
     inkscape:document-units="px"
     inkscape:zoom="1.08"
     inkscape:cx="905.55556"
     inkscape:cy="475.46296"
     inkscape:window-width="1920"
     inkscape:window-height="1009"
     inkscape:window-x="1912"
     inkscape:window-y="-8"
     inkscape:window-maximized="1"
     inkscape:current-layer="layer1" />
  <defs
     id="defs1">
    <linearGradient
       id="swatch83"
       inkscape:swatch="solid">
      <stop
         style="stop-color:#000000;stop-opacity:1;"
         offset="0"
         id="stop84" />
    </linearGradient>
    <rect
       x="186.39626"
       y="147.73629"
       width="938.88485"
       height="339.6554"
       id="rect2" />
    <rect
       x="272.00046"
       y="202.96481"
       width="860.18421"
       height="284.42688"
       id="rect1" />
    <filter
       inkscape:menu-tooltip="In and out glow with a possible offset and colorizable flood"
       inkscape:menu="Shadows and Glows"
       inkscape:label="Cutout Glow"
       style="color-interpolation-filters:sRGB;"
       id="filter195"
       x="-0.0093669096"
       y="-0.042898842"
       width="1.0226367"
       height="1.1036722">
      <feOffset
         dy="3"
         dx="3"
         id="feOffset195" />
      <feGaussianBlur
         stdDeviation="3"
         result="blur"
         id="feGaussianBlur195" />
      <feFlood
         flood-color="rgb(0,0,0)"
         flood-opacity="1"
         result="flood"
         id="feFlood195" />
      <feComposite
         in="flood"
         in2="SourceGraphic"
         operator="in"
         result="composite"
         id="feComposite195" />
      <feBlend
         in="blur"
         in2="composite"
         mode="normal"
         id="feBlend195" />
    </filter>
    <rect
       x="186.39626"
       y="147.7363"
       width="938.88483"
       height="339.6554"
       id="rect2-5" />
    <filter
       inkscape:menu-tooltip="In and out glow with a possible offset and colorizable flood"
       inkscape:menu="Shadows and Glows"
       inkscape:label="Cutout Glow"
       style="color-interpolation-filters:sRGB"
       id="filter195-5"
       x="-0.0094053764"
       y="-0.043746905"
       width="1.0227297"
       height="1.1057217">
      <feOffset
         dy="3"
         dx="3"
         id="feOffset195-5" />
      <feGaussianBlur
         stdDeviation="3"
         result="blur"
         id="feGaussianBlur195-1" />
      <feFlood
         flood-color="rgb(0,0,0)"
         flood-opacity="1"
         result="flood"
         id="feFlood195-4" />
      <feComposite
         in="flood"
         in2="SourceGraphic"
         operator="in"
         result="composite"
         id="feComposite195-0" />
      <feBlend
         in="blur"
         in2="composite"
         mode="normal"
         id="feBlend195-7" />
    </filter>
  </defs>
  <g
     inkscape:label="Layer 1"
     inkscape:groupmode="layer"
     id="layer1">
    <g
       id="g258"
       transform="matrix(1,0,0,1.0094786,0,-0.7337926)"
       sodipodi:insensitive="true">
      <path
         id="rect257"
         style="opacity:1;fill:#fcdef9;stroke:#ff0000;stroke-width:0;stroke-linecap:round;stroke-linejoin:round;paint-order:markers fill stroke"
         d="m 193.04784,84.764656 h 38.95255 V 120.5324 h -38.95255 z" />
      <path
         id="path256"
         style="opacity:1;fill:#fcdef9;stroke:#ff0000;stroke-width:0;stroke-linecap:round;stroke-linejoin:round;paint-order:markers fill stroke"
         transform="matrix(1,0,0,0.9906104,0,0.72690258)"
         d="m 225.3858,86.268845 a 12.739197,9.6768904 0 0 1 -12.73919,9.67689 12.739197,9.6768904 0 0 1 -12.7392,-9.67689 12.739197,9.6768904 0 0 1 12.7392,-9.676891 12.739197,9.6768904 0 0 1 12.73919,9.676891 z" />
      <path
         id="path256-0"
         style="fill:#fcdef9;stroke:#ff0000;stroke-width:0;stroke-linecap:round;stroke-linejoin:round;paint-order:markers fill stroke"
         transform="matrix(1,0,0,0.9906104,0,0.72690258)"
         d="m 225.80717,119.96895 a 12.739197,9.6768904 0 0 1 -12.73919,9.67689 12.739197,9.6768904 0 0 1 -12.7392,-9.67689 12.739197,9.6768904 0 0 1 12.7392,-9.67689 12.739197,9.6768904 0 0 1 12.73919,9.67689 z" />
      <path
         id="rect258"
         style="opacity:1;fill:#fcdef9;stroke:#ff0000;stroke-width:0;stroke-linecap:round;stroke-linejoin:round;paint-order:markers fill stroke"
         d="m 220.18936,78.628548 h 27.78677 c 1.19282,0 2.1531,0.960284 2.1531,2.153103 v 46.172119 c 0,1.19282 -0.96028,2.1531 -2.1531,2.1531 h -27.78677 c -1.19282,0 -2.15311,-0.96028 -2.15311,-2.1531 V 80.781651 c 0,-1.192819 0.96029,-2.153103 2.15311,-2.153103 z" />
    </g>
    <path
       id="path3"
       style="opacity:1;fill:#fcdef9;stroke:#ff0000;stroke-width:0;stroke-linecap:round;stroke-linejoin:round;paint-order:markers fill stroke"
       inkscape:transform-center-x="-18.85975"
       inkscape:transform-center-y="-0.020100808"
       sodipodi:type="inkscape:offset"
       inkscape:radius="4.3493314"
       inkscape:original="M 351.8457 3.6425781 L 322.41406 21 L 292.98242 38.357422 L 322.73047 55.167969 L 352.47852 71.978516 L 352.16211 37.810547 L 351.8457 3.6425781 z "
       d="m 353.98437,-0.14453125 a 4.3497663,4.3497663 0 0 0 -4.34765,0.0410156 L 320.20508,17.253906 290.77344,34.611328 a 4.3497663,4.3497663 0 0 0 0.0684,7.533203 l 29.74804,16.810547 29.74805,16.810547 a 4.3497663,4.3497663 0 0 0 6.49023,-3.828125 l -0.3164,-34.167969 -0.31641,-34.1679685 a 4.3497663,4.3497663 0 0 0 -2.21094,-3.74609375 z"
       transform="matrix(-1.9136897,0.01670051,0.01670051,1.9136897,889.39443,27.234827)" />
    <path
       id="text2"
       style="font-style:normal;font-weight:normal;font-size:266.667px;line-height:1.25;font-family:sans-serif;letter-spacing:0px;word-spacing:0px;white-space:pre;shape-inside:url(#rect2);display:none;opacity:1;mix-blend-mode:normal;fill:#000000;fill-opacity:1;stroke:none;filter:url(#filter195)"
       d="m 662.1875,227.46289 c -5.68504,1.79252 -11.37291,3.6066 -17.17578,4.98438 -0.54962,0.11103 -1.34596,0.29764 -1.91784,0.40742 -3.13155,0.64158 -6.2978,1.09008 -9.46693,1.49883 0,2.26692 0,4.53385 0,6.80078 1.97983,0.15471 4.01038,0.28135 5.88747,0.52685 2.17906,0.32495 4.47866,0.52966 6.42894,1.63721 1.85236,1.12422 2.16504,3.44517 2.39996,5.40646 0.60183,5.79493 0.31794,11.63211 0.38715,17.44706 0,9.28971 0,18.57942 0,27.86914 -3.51902,-2.32591 -7.50726,-3.93369 -11.67677,-4.60558 -9.82267,-1.63359 -20.22556,0.15324 -28.83046,5.20587 -6.09564,3.5949 -11.45029,8.41159 -15.83937,13.95219 -5.05658,6.45077 -8.79657,13.92657 -11.01793,21.81163 -1.65124,5.80992 -2.17574,11.89973 -1.79182,17.91824 0.45593,9.11566 2.72076,18.23721 7.32397,26.16803 4.00978,7.1531 9.72328,13.55194 17.0668,17.36974 4.25194,2.27419 9.11335,3.46061 13.94103,3.1017 6.5612,-0.25735 13.04784,-2.43551 18.34092,-6.34173 4.83539,-3.44574 9.06843,-7.65981 12.99339,-12.09572 0.47483,4.36786 1.00729,8.82543 2.74139,12.90168 1.1176,2.51437 3.08084,5.02578 5.95393,5.49676 2.80491,0.37624 5.53134,-0.76045 8.0516,-1.85545 5.59737,-2.61922 10.74818,-6.07299 15.89879,-9.46218 0.67315,-0.4499 1.34648,-0.89952 2.02031,-1.34839 -0.71799,-2.37353 -1.43507,-4.74734 -2.15234,-7.12109 -3.52074,1.31247 -7.01215,2.84289 -10.73829,3.46875 -0.69113,0.088 -1.60546,0.10977 -1.87189,-0.69526 -1.33316,-2.43405 -1.45818,-5.28217 -1.62029,-7.99224 -0.0976,-2.00484 -0.13156,-4.27296 -0.12891,-6.41367 0,-44.03724 0,-88.07448 0,-132.11172 -1.4479,-1.40039 -2.89559,-2.80099 -4.3418,-4.20313 -0.28841,0.0911 -0.57682,0.18229 -0.86523,0.27344 z m -116.43945,20.16797 c -4.26889,0.25937 -8.1073,2.98738 -10.22043,6.63442 -2.43564,3.99525 -2.97871,8.99348 -1.89943,13.50596 0.66721,2.84426 2.69331,5.41586 5.5111,6.35754 4.1018,1.40968 8.98783,0.65217 12.24662,-2.29123 3.40654,-2.96197 5.43763,-7.37366 5.56996,-11.87799 0.14418,-3.42384 -0.39167,-7.22548 -2.93048,-9.74862 -2.15426,-2.14318 -5.34355,-2.75499 -8.27734,-2.58008 z m -356.36719,11.2168 c -1.65149,8.87925 -2.76903,17.85246 -3.55664,26.84765 2.31197,1.02057 4.62371,2.04165 6.93555,3.0625 1.62132,-4.16141 3.11061,-8.19077 4.99281,-12.24547 0.98691,-1.97244 1.94788,-4.07523 3.63023,-5.55922 1.63098,-1.33795 3.84763,-0.84062 5.78242,-0.9375 8.92474,0 17.84948,10e-6 26.77422,0 -0.003,36.11908 0.005,72.23866 -0.004,108.35743 -0.81829,1.22636 -2.2743,1.82535 -3.53106,2.506 -4.30308,1.91552 -8.96399,2.81077 -13.54902,3.77525 0,2.41146 0,4.82291 0,7.23437 17.95768,0 35.91536,0 53.87305,0 0,-2.41015 0,-4.82031 0,-7.23047 -4.73544,-1.01102 -9.56842,-1.95005 -13.95233,-4.08348 -1.1073,-0.62918 -2.39745,-1.17467 -3.13166,-2.25441 0,-36.10156 0,-72.20312 0,-108.30469 9.55325,0.0156 19.10762,-0.0312 28.66016,0.0234 1.46023,0.0352 2.80294,0.8557 3.54142,2.10859 1.44473,2.28192 1.89668,5.00563 2.58754,7.57552 0.62703,2.65533 1.1683,5.32951 1.72846,7.99949 2.39648,0 4.79297,0 7.18945,0 1.63904,-8.81748 3.12594,-17.70491 3.40625,-26.68555 -1.37394,-1.14567 -2.74882,-2.29022 -4.12304,-3.43555 -35.67579,0 -71.35157,0 -107.02735,0 -0.0755,0.41537 -0.15104,0.83073 -0.22656,1.2461 z m 242.29492,30.10742 c -7.17711,2.87679 -14.62632,5.13752 -22.28516,6.2832 -1.52054,0.24235 -3.23012,0.46312 -4.82617,0.67969 0,2.28581 0,4.57161 0,6.85742 3.13844,0.35371 6.25901,0.6175 9.36468,1.38325 1.31436,0.3036 2.7685,0.89769 3.23689,2.28863 0.76913,2.48774 0.70915,5.13842 0.81489,7.71692 0.0563,16.02033 -0.008,32.04146 0.0322,48.06191 0.0943,6.59462 0.71732,13.36139 3.408,19.45965 1.42341,3.2807 3.71138,6.16203 6.59485,8.27855 4.7883,3.68846 10.95147,5.19048 16.92375,5.03862 6.77774,-0.15734 13.3507,-2.49153 19.20334,-5.80976 5.91741,-3.47953 11.13378,-8.0109 16.07957,-12.73808 0.46082,4.59946 1.07605,9.31556 3.13118,13.51296 1.1942,2.47411 3.39136,4.75344 6.26153,5.00571 2.5791,0.22052 5.00264,-0.95853 7.31156,-1.94785 6.27139,-2.97709 12.13357,-6.72992 17.95198,-10.4966 -0.55444,-2.49955 -1.10888,-4.9991 -1.66602,-7.49805 -3.60178,1.48689 -7.23134,3.25394 -11.18039,3.49964 -0.81503,0.0413 -1.89848,-0.0271 -2.14383,-0.98401 -0.96379,-2.56948 -0.95754,-5.36833 -1.13539,-8.07382 -0.21226,-6.32024 -0.0648,-12.64611 -0.10875,-18.96876 0,-18.86276 0,-37.72552 0,-56.58828 -1.367,-1.77634 -2.73398,-3.55269 -4.09961,-5.33008 -7.53235,2.51818 -15.0938,5.09074 -22.94531,6.42383 -1.14484,0.19092 -2.56855,0.42298 -3.71635,0.57558 -0.82882,0.11038 -1.65777,0.21977 -2.48678,0.32871 0,2.31185 0,4.6237 0,6.93555 3.68168,0.24173 7.47972,0.25452 10.97852,1.5625 1.65115,0.5888 2.60804,2.21819 2.92219,3.86625 0.96693,4.41211 0.60484,8.96449 0.68328,13.44586 0,13.58281 0,27.16562 0,40.74844 -4.0019,4.22249 -8.32618,8.34929 -13.22335,11.63179 -5.11232,3.40824 -11.21702,5.84943 -17.45829,5.28617 -3.463,-0.26893 -6.84378,-1.97579 -8.84603,-4.85961 -2.21977,-3.24332 -2.92271,-7.23294 -3.39196,-11.06215 -0.6282,-5.81353 -0.31995,-11.66999 -0.39482,-17.50441 0,-17.33971 0,-34.67942 0,-52.01914 -1.29558,-1.80692 -2.59383,-3.61192 -3.89063,-5.41797 -0.36654,0.14258 -0.73307,0.28516 -1.09961,0.42774 z m -72.2168,-0.0899 c -8.51494,0.22725 -16.75104,3.06335 -24.26496,6.93153 -6.87595,3.66172 -13.28562,8.46981 -18.01247,14.71928 -1.45821,1.92751 -2.67354,4.02915 -3.68155,6.22419 0.65211,1.81277 1.30373,3.62572 1.95312,5.43946 2.48007,0.72704 5.08802,0.11836 7.55236,-0.37687 3.46268,-0.82445 6.96262,-1.74572 10.11586,-3.43685 1.33138,-0.73374 2.88567,-1.92535 2.69871,-3.63166 -0.34023,-2.76288 0.81235,-5.5673 2.85402,-7.42705 3.40018,-3.29466 8.20695,-4.77993 12.85631,-4.98063 3.78033,-0.0753 7.86077,0.30211 10.99501,2.62259 3.26792,2.61104 4.54721,6.92997 4.71353,10.96785 0.0793,4.90008 0.0124,9.80289 0.0345,14.70402 -10.72988,1.61299 -21.50008,3.53675 -31.71215,7.30431 -8.10515,2.98027 -15.32673,8.51329 -20.03062,15.78421 -2.32228,3.54825 -3.90247,7.58487 -4.45059,11.7982 -0.75574,5.81499 -0.51978,12.02657 2.22374,17.32994 2.60065,4.92919 7.08397,8.85237 12.37692,10.64233 5.12854,1.89832 10.81883,1.9526 16.07653,0.55234 9.07418,-2.34305 17.21071,-7.45977 24.12327,-13.68919 0.53581,-0.47169 1.05553,-0.96089 1.57844,-1.44675 0.41516,4.52541 1.32253,9.22703 4.01152,12.99625 1.3936,1.99137 3.77811,3.40508 6.26205,3.08918 3.8116,-0.42074 7.2548,-2.28638 10.64394,-3.95231 4.80968,-2.50215 9.3296,-5.5131 13.78171,-8.59601 -0.8139,-2.43421 -1.62442,-4.86955 -2.43554,-7.30468 -3.48231,1.37069 -6.9822,2.96775 -10.75391,3.29297 -0.98724,0.19494 -1.91891,-0.44975 -2.2351,-1.37153 -1.11901,-2.77087 -0.70898,-5.83111 -0.79615,-8.74566 -0.0106,-18.71788 0.0213,-37.43613 -0.0159,-56.15377 -0.094,-5.59725 -1.70235,-11.37909 -5.51335,-15.606 -3.27994,-3.75893 -7.93861,-6.11821 -12.80171,-7.04306 -2.6795,-0.53068 -5.41988,-0.69654 -8.14751,-0.63663 z m 188.68164,0.13282 c -5.65451,2.72566 -11.66372,4.62658 -17.70898,6.26953 -2.23742,0.59486 -4.67351,1.16708 -7.0142,1.63811 -0.93717,0.18131 -1.87439,0.36236 -2.81197,0.54158 0,2.26367 0,4.52734 0,6.79101 3.70882,0.42506 7.51352,0.6645 11.03899,1.98319 1.65736,0.60056 2.89307,2.1456 3.03955,3.91359 0.68681,5.11823 0.4532,10.30098 0.50544,15.45088 -0.009,17.96035 0.0182,35.93057 -0.0137,53.88476 -1.20734,1.25816 -2.93335,1.839 -4.50359,2.51397 -2.75056,1.0554 -5.68581,1.76481 -8.48546,2.3391 -0.47004,0.22361 -1.43693,0.0444 -1.58126,0.53248 0,2.34414 0,4.68828 0,7.03242 15.94336,0 31.88672,0 47.83008,0 0,-2.41276 0,-4.82552 0,-7.23828 -4.39317,-0.90698 -8.90857,-1.74215 -12.9012,-3.88 -0.59005,-0.39167 -1.40958,-0.72294 -1.68083,-1.40359 0,-30.17175 0,-60.34349 0,-90.51524 -1.82816,0.0293 -3.68274,-0.0586 -5.49464,0.0429 -0.0728,0.0345 -0.1455,0.0691 -0.21826,0.10361 z m 189.33594,-0.13672 c -6.34211,0.2238 -12.43815,2.44478 -18.05695,5.26782 -8.76213,4.52862 -16.05816,11.72998 -20.91074,20.29938 -5.30737,9.2107 -8.10742,19.8238 -8.10888,30.45024 -0.0609,10.24162 2.05148,20.70226 7.37516,29.55 4.45048,7.58927 11.14895,13.95342 19.26427,17.46279 5.51594,2.46098 11.63256,3.41261 17.64617,3.06072 6.19678,-0.20725 12.46218,-1.55325 17.8518,-4.71464 7.17949,-4.09255 13.09197,-9.99209 18.7563,-15.92453 1.28185,-1.34191 2.52017,-2.72454 3.78053,-4.08655 -1.43495,-2.35351 -3.03365,-4.78421 -5.54832,-6.09813 -0.53641,-0.47087 -0.98487,0.50753 -1.47939,0.7287 -3.10618,2.53027 -6.22461,4.93455 -9.58753,7.17607 -4.33497,2.83667 -9.06294,5.40211 -14.28454,6.02235 -5.21492,0.68655 -10.71847,0.59728 -15.6004,-1.57223 -5.70277,-2.46381 -10.14828,-7.20082 -13.26916,-12.47912 -2.40667,-4.08839 -4.00485,-8.61148 -5.00996,-13.23662 -0.15177,-0.70939 -0.34815,-1.72144 -0.48387,-2.55393 -0.19507,-1.18749 -0.36503,-2.57169 -0.47707,-3.64724 -0.0856,-0.93968 -0.13637,-1.68617 -0.1914,-2.625 0.0296,-0.3902 -0.32832,-1.41822 0.55312,-1.09375 17.64571,0 35.29141,0 52.93711,0 4.62415,-1.86962 9.3399,-4.08472 12.68555,-7.90625 0.0468,-8.17494 -1.53686,-16.39528 -4.88663,-23.86597 -2.87372,-6.19009 -7.4942,-11.58099 -13.21414,-15.3099 -5.84344,-3.70949 -12.90311,-5.01232 -19.74103,-4.90421 z m 100.21094,0.004 c -8.55871,0.22911 -16.83478,3.09086 -24.38086,6.99024 -6.99199,3.74547 -13.509,8.6755 -18.23242,15.11133 -1.31142,1.8031 -2.41419,3.74924 -3.3457,5.77343 0.6521,1.81277 1.30372,3.62572 1.95312,5.43946 2.48006,0.72704 5.08802,0.11836 7.55235,-0.37687 3.46267,-0.82435 6.96259,-1.74584 10.11586,-3.43685 1.33214,-0.73292 2.88535,-1.92552 2.69872,-3.63166 -0.34024,-2.76288 0.81235,-5.5673 2.85402,-7.42705 3.4002,-3.29456 8.20694,-4.7801 12.8563,-4.98063 3.77975,-0.0752 7.85976,0.30133 10.99306,2.62259 3.258,2.6038 4.54245,6.90715 4.7107,10.93469 0.0861,4.91107 0.0133,9.82501 0.0373,14.73718 -10.72924,1.61326 -21.49865,3.53693 -31.71018,7.30435 -7.92915,2.91548 -15.0073,8.27152 -19.72039,15.30757 -2.43186,3.60841 -4.14294,7.72324 -4.72586,12.04935 -0.78347,5.72491 -0.59416,11.82267 1.96112,17.11022 2.55966,5.13783 7.15394,9.244 12.60456,11.0875 5.01249,1.85375 10.56354,1.95152 15.71982,0.64439 8.94954,-2.23584 17.01179,-7.18066 23.87878,-13.24568 0.73456,-0.6505 1.46204,-1.30899 2.1777,-1.98035 0.41525,4.52495 1.32335,9.22533 4.01151,12.99429 1.39527,1.99109 3.77902,3.40509 6.26401,3.08918 3.8116,-0.42074 7.2548,-2.28638 10.64393,-3.95231 4.80968,-2.50215 9.32961,-5.5131 13.78172,-8.59601 -0.81391,-2.43421 -1.62443,-4.86955 -2.43555,-7.30468 -3.48231,1.37069 -6.98219,2.96775 -10.7539,3.29297 -1.02439,0.20444 -1.96928,-0.49814 -2.27387,-1.45506 -1.0877,-2.82003 -0.66764,-5.90943 -0.75934,-8.86213 -0.0103,-18.61852 0.0205,-37.23744 -0.0154,-55.85571 -0.077,-5.60627 -1.66577,-11.40189 -5.46584,-15.65075 -3.28382,-3.78666 -7.96206,-6.16618 -12.84777,-7.09673 -2.67969,-0.52977 -5.41991,-0.69636 -8.14759,-0.63627 z m 83.10742,-0.002 c -7.4348,0.20259 -14.94116,2.4509 -20.89476,6.98987 -4.60126,3.5457 -8.22265,8.50266 -9.63507,14.18402 -1.22338,4.9613 -1.33713,10.32586 0.36577,15.19135 1.509,4.30844 4.59161,7.86454 7.98864,10.82217 4.01687,3.32159 8.57745,5.91414 13.17611,8.3353 6.11056,3.18111 12.31463,6.1108 18.0637,9.96146 2.72498,1.89056 5.20964,4.26907 6.81842,7.19552 1.68287,3.25996 1.45821,7.17947 0.3711,10.58789 -1.55166,4.62131 -5.78639,8.0595 -10.5216,9.00254 -3.93451,0.7805 -8.03942,0.43301 -11.90547,-0.55296 -5.71004,-1.55909 -11.10542,-5.00747 -14.20757,-10.13953 -1.74689,-2.8525 -2.58813,-6.18046 -2.6788,-9.50868 -0.40988,-0.32406 -1.19163,-0.33759 -1.74555,-0.54138 -1.7401,-0.44541 -3.48014,-0.89105 -5.22031,-1.33616 -1.54532,4.66062 -1.92138,9.59482 -2.2302,14.46344 -0.14753,3.82867 -0.30849,7.71686 0.44853,11.49476 0.19545,1.04824 0.7661,2.08735 1.82528,2.45514 6.94736,3.725 14.54912,6.30714 22.37953,7.30283 6.76677,0.80237 13.59036,-0.55721 20.02651,-2.59158 6.15032,-2.09859 11.50256,-6.21047 15.54174,-11.25556 3.96139,-5.1824 5.47465,-11.80399 5.68353,-18.2188 0.25598,-4.87026 -0.60332,-9.92348 -3.24189,-14.0947 -2.66472,-4.31404 -6.32757,-7.98774 -10.61929,-10.68534 -5.87741,-3.95904 -12.29007,-7.01252 -18.54053,-10.31986 -3.30411,-1.76486 -6.68993,-3.42855 -9.74391,-5.61283 -2.16387,-1.67854 -4.32978,-3.56093 -5.55993,-6.05632 -1.43574,-2.96964 -0.83639,-6.61104 1.08488,-9.22032 2.47819,-3.41597 6.65096,-5.45781 10.85996,-5.4376 5.82435,-0.17151 11.34671,2.80353 15.31235,6.91541 1.08055,1.10567 2.07552,2.2851 2.9668,3.44141 0.72211,0.9479 1.39741,1.92968 2.06836,2.91406 1.86202,0.3813 3.72417,0.76199 5.58594,1.14453 2.26569,-2.65554 3.45584,-5.99623 4.73828,-9.19141 0.84894,-2.41878 1.78742,-4.92327 1.6582,-7.52734 -0.0529,-1.10145 -0.85987,-1.89808 -1.72396,-2.47154 -4.56088,-3.41229 -10.17501,-4.92424 -15.62883,-6.23505 -4.21566,-0.95324 -8.53884,-1.50229 -12.86596,-1.40474 z m -185.54687,13.96484 c 4.39986,-0.0276 9.06641,1.04251 12.32072,4.17932 3.05106,2.7156 5.26533,6.33671 6.26713,10.29853 0.88295,3.19416 1.5058,6.52367 1.29228,9.84768 -0.0566,0.48617 -0.17039,1.14504 -0.80006,1.13737 -1.98583,0.29366 -4.00988,0.0748 -6.01132,0.14257 -12.78594,0 -25.57188,0 -38.35782,0 1.3272,-7.26811 4.37381,-14.4965 9.88245,-19.58312 3.87427,-3.6155 9.03486,-5.84411 14.34763,-5.99827 0.35252,-0.0205 0.70606,-0.0153 1.05899,-0.0241 z m -108.4336,0.51954 c 6.48489,-0.0408 13.04949,2.18409 17.91697,6.52052 1.56799,1.41458 2.91312,3.07183 3.99905,4.88182 0,15.92708 0,31.85417 0,47.78125 -3.16348,3.0145 -6.25093,5.95696 -9.58294,8.78488 -3.05675,2.45863 -6.39667,4.64042 -10.05917,6.08018 -3.68234,1.39132 -7.91148,1.42309 -11.5078,-0.2553 -5.89765,-2.65721 -10.45266,-7.65932 -13.59286,-13.22263 -3.51288,-6.04228 -5.42858,-12.94685 -5.77485,-19.91437 -0.30111,-6.98986 0.22488,-14.10447 2.35233,-20.80188 2.05383,-6.28655 5.77996,-12.31655 11.48977,-15.87591 4.3917,-2.76078 9.602,-3.99678 14.7595,-3.97856 z m -259.54101,62.67578 c -5.80845,4.9047 -12.27596,9.34826 -19.67383,11.42187 -2.7381,0.70416 -5.60812,1.21102 -8.43657,0.86434 -2.21174,-0.3395 -4.29273,-1.4438 -5.70388,-3.19807 -2.25719,-2.42151 -2.67354,-5.9117 -2.61568,-9.08215 0.029,-4.90925 2.09635,-9.69993 5.4874,-13.22528 3.18655,-3.42846 7.46777,-5.60794 11.89447,-6.9738 6.20729,-1.99616 12.62569,-3.22912 19.04809,-4.29715 0,8.16341 0,16.32683 0,24.49024 z m 478.22656,0 c -5.83369,4.92413 -12.33034,9.39028 -19.76867,11.447 -2.69718,0.68652 -5.52245,1.17912 -8.30645,0.84231 -2.22391,-0.32972 -4.32136,-1.43636 -5.7366,-3.20172 -2.25932,-2.41953 -2.6732,-5.91191 -2.61629,-9.0816 0.0313,-4.87387 2.06209,-9.63773 5.41797,-13.15148 3.19267,-3.4696 7.50566,-5.67216 11.9639,-7.0476 6.20674,-1.99571 12.62431,-3.2295 19.04614,-4.29715 0,8.16341 0,16.32683 0,24.49024 z"
       transform="matrix(0.37704633,0,0,0.3215195,-66.295228,-4.807982)" />
    <text
       xml:space="preserve"
       transform="matrix(0.37704633,0,0,0.3215195,0.833533,48.042371)"
       id="text2-8"
       style="font-style:normal;font-weight:normal;font-size:266.667px;line-height:1.25;font-family:sans-serif;letter-spacing:0px;word-spacing:0px;white-space:pre;shape-inside:url(#rect2-5);display:none;mix-blend-mode:normal;fill:#000000;fill-opacity:1;stroke:none;filter:url(#filter195-5)"><tspan
         x="186.39648"
         y="390.37001"
         id="tspan4"><tspan
           style="font-size:213.333px;font-family:'David Libre';-inkscape-font-specification:'David Libre'"
           id="tspan2">Tauideas</tspan></tspan></text>
  </g>
  <g
     inkscape:groupmode="layer"
     id="layer2"
     inkscape:label="Layer 2" />
</svg>
